<?xml version="1.0" encoding="UTF-8"?>
<!DOCTYPE svg PUBLIC "-//W3C//DTD SVG 1.1//EN" "http://www.w3.org/Graphics/SVG/1.1/DTD/svg11.dtd">
<!-- Creator: CorelDRAW 2017 -->
<svg xmlns="http://www.w3.org/2000/svg" xml:space="preserve" width="250px" height="250px" version="1.1" style="shape-rendering:geometricPrecision; text-rendering:geometricPrecision; image-rendering:optimizeQuality; fill-rule:evenodd; clip-rule:evenodd"
viewBox="0 0 250 250"
 xmlns:xlink="http://www.w3.org/1999/xlink">
 <defs>
  <style type="text/css">
   <![CDATA[
    .fil0 {fill:none}
    .fil1 {fill:red;fill-rule:nonzero;fill-opacity:0.501961}
   ]]>
  </style>
 </defs>
 <g id="Слой_x0020_1">
  <metadata id="CorelCorpID_0Corel-Layer"/>
  <rect class="fil0" width="250" height="250"/>
  <path class="fil1" d="M67.75 165.85c1.2,0 4.3,0.5 4.3,-1.5 0,-0.5 -3.9,-19.8 -5.8,-19.8 -2.5,0 -8.1,8.5 -17.3,8.5 -5.5,0 -11.5,-3.3 -11.5,-17.1 0,-27.6 11.6,-49.1 11.6,-51.3 0,-1.8 -1.2,-2 -1.9,-2l-15.9 0c-2.9,0 -8.4,46.2 -8.4,59.6 0.5,20.3 -1.1,23.8 4.2,23.6l40.7 0zm32.4 1.5c11.5,0 25.1,-10.1 25.1,-33.6 0,-16.1 -7.7,-33.4 -25.1,-33.4 -17.4,0 -25.1,17.3 -25.1,33.4 0,23.5 13.6,33.6 25.1,33.6zm0 -16.7c-10.1,0 -12.7,-11.4 -12.7,-19.4 0,-7.9 2.8,-19.1 12.7,-19.1 9.9,0 12.7,11.2 12.7,19.1 0,8 -2.6,19.4 -12.7,19.4zm52.2 16.7c12,0 22.8,-7.4 22.8,-20.4 0,-20.3 -29.2,-20.1 -29.2,-30.4 0,-3 4.2,-4.4 7.3,-4.4 9.2,0 9.8,7.7 12.4,7.7 2.3,0 7.9,-8.1 7.9,-10 0,-2 -6.9,-9.5 -19.4,-9.5 -10.8,0 -20.6,6.6 -20.6,18.8 0,19.9 27,17.2 27,27.5 0,5.1 -4.8,7.2 -8.9,7.2 -14.2,0 -16.7,-15.1 -17.2,-15.1 -0.8,0 -3.2,6 -3.2,10.7 0,11.7 10.5,17.9 21.1,17.9zm54.1 0c12,0 21.8,-7.3 21.8,-20 0,-0.8 -0.3,-6 -1.8,-6 -1.4,0 -1.4,12.5 -17.8,12.5 -5,0 -12.6,-3.4 -12.6,-8.1 0,-10.4 32.2,-5.9 32.2,-27.4 0,-11.8 -9.3,-18 -20.3,-18 -13.4,0 -26.8,12 -26.8,36.2 0,16 7.4,30.8 25.3,30.8zm1 -55.2c3.8,0 8.4,2.7 8.4,7.6 0,5.1 -18.2,9.1 -19.4,9.1 -1.3,0 -1.8,-1.1 -1.8,-2.2 0,-5.8 4.7,-14.5 12.8,-14.5z"/>
 </g>
</svg>
