<?xml version="1.0" encoding="UTF-8"?>
<!DOCTYPE svg PUBLIC "-//W3C//DTD SVG 1.1//EN" "http://www.w3.org/Graphics/SVG/1.1/DTD/svg11.dtd">
<!-- Creator: CorelDRAW 2017 -->
<svg xmlns="http://www.w3.org/2000/svg" xml:space="preserve" width="250px" height="250px" version="1.1" style="shape-rendering:geometricPrecision; text-rendering:geometricPrecision; image-rendering:optimizeQuality; fill-rule:evenodd; clip-rule:evenodd"
viewBox="0 0 250 250"
 xmlns:xlink="http://www.w3.org/1999/xlink">
 <defs>
  <style type="text/css">
   <![CDATA[
    .fil0 {fill:none}
    .fil1 {fill:red;fill-rule:nonzero;fill-opacity:0.501961}
   ]]>
  </style>
 </defs>
 <g id="Слой_x0020_1">
  <metadata id="CorelCorpID_0Corel-Layer"/>
  <rect class="fil0" width="250" height="250"/>
  <path class="fil1" d="M110.45 77.6c-0.9,0 -2.1,-0.1 -2.1,1.5 0,1.3 3.4,12.2 3.4,22.8 0,16.8 -7,34.4 -10.8,34.4 -3,0 -8.7,-16 -8.7,-38.3 0,-11.1 1.9,-17 1.9,-18.7 0,-1.5 -1.2,-1.7 -2.5,-1.7l-13 0c-1.1,0 -1.7,0.1 -1.7,1.3 0,1.3 1.8,6.1 1.8,19.4 0,23.8 -8.2,38 -11.3,38 -2.3,0 -8.3,-11.5 -8.3,-36.1 0,-13.2 2.9,-20.2 2.9,-21.2 0,-1.3 -1.3,-1.4 -2.3,-1.4l-12.4 0c-2.1,0 -4,-1.5 -4,25.9 0,34.3 19.6,59.7 21.5,59.7 4.4,0 14.6,-26.4 17.9,-26.4 3.3,0 13.5,26.4 17.9,26.4 1.9,0 24.6,-30.4 24.6,-68.9 0,-18.2 -3,-16.7 -5.6,-16.7l-9.2 0zm35.3 83.2c2.3,0 5.3,0.6 5.3,-2.6 0,-0.9 -3.9,-16.4 -3.9,-41.6 0,-10.9 1.2,-14.6 1.2,-18.3 0,-1.2 -0.1,-1.5 -4.3,-1.5l-5.5 0c-3.3,0 -4.9,-3.3 -4.9,30.9 0,35.2 0.4,33.1 5.3,33.1l6.8 0zm-3.3 -71.8c4,0 7.7,-2.3 7.7,-6.6 0,-4.3 -3.7,-6.9 -7.7,-6.9 -4,0 -7.7,2.6 -7.7,6.9 0,4.3 3.7,6.6 7.7,6.6zm57.3 71.8c3.4,0 6.5,2 6.5,-37.3 0,-26.3 -11.6,-26.7 -14.4,-26.7 -6.4,0 -11,4.1 -12.7,4.1 -1,0 -1.5,-0.9 -1.5,-1.9 0,-1.4 0.9,-2.6 0.9,-3.6 0,-2.3 -3.6,-1.8 -7.1,-1.8 -7.7,0 -11.2,-2.8 -11.2,42.5 0,26.4 1.5,24.7 5.2,24.7l8.5 0c1,0 2.7,0.1 2.7,-1.3 0,-1.2 -2.9,-16.6 -2.9,-28.6 0,-19.8 7.8,-22.3 11.6,-22.3 6.8,0 7.4,8.9 7.4,16 0,20.3 -5.1,33.6 -5.1,34.6 0,1.9 2.2,1.6 3.5,1.6l8.6 0z"/>
 </g>
</svg>
